<mxfile host="app.diagrams.net" modified="2021-02-20T11:00:18.576Z" agent="5.0 (Macintosh; Intel Mac OS X 10_15_6) AppleWebKit/537.36 (KHTML, like Gecko) Chrome/86.0.4240.193 Safari/537.36" etag="t9A4gDuKWvhImOQsuVjs" version="14.3.2" type="github">
  <diagram id="cd-fP7-34LJV6OsgozIA" name="Page-1">
    <mxGraphModel dx="946" dy="536" grid="1" gridSize="10" guides="1" tooltips="1" connect="1" arrows="1" fold="1" page="1" pageScale="1" pageWidth="827" pageHeight="1169" math="0" shadow="0">
      <root>
        <mxCell id="0" />
        <mxCell id="1" parent="0" />
        <mxCell id="NvFCu2Bgrx8EYoaxN4R6-4" style="edgeStyle=orthogonalEdgeStyle;rounded=0;orthogonalLoop=1;jettySize=auto;html=1;exitX=1;exitY=0.25;exitDx=0;exitDy=0;entryX=0;entryY=0.25;entryDx=0;entryDy=0;" edge="1" parent="1" source="NvFCu2Bgrx8EYoaxN4R6-1" target="NvFCu2Bgrx8EYoaxN4R6-2">
          <mxGeometry relative="1" as="geometry" />
        </mxCell>
        <mxCell id="NvFCu2Bgrx8EYoaxN4R6-1" value="Node" style="rounded=1;whiteSpace=wrap;html=1;fillColor=#fff2cc;strokeColor=#d6b656;" vertex="1" parent="1">
          <mxGeometry x="150" y="190" width="100" height="50" as="geometry" />
        </mxCell>
        <mxCell id="NvFCu2Bgrx8EYoaxN4R6-5" style="edgeStyle=orthogonalEdgeStyle;rounded=0;orthogonalLoop=1;jettySize=auto;html=1;exitX=1;exitY=0.25;exitDx=0;exitDy=0;entryX=0;entryY=0.25;entryDx=0;entryDy=0;" edge="1" parent="1" source="NvFCu2Bgrx8EYoaxN4R6-2" target="NvFCu2Bgrx8EYoaxN4R6-3">
          <mxGeometry relative="1" as="geometry" />
        </mxCell>
        <mxCell id="NvFCu2Bgrx8EYoaxN4R6-6" style="edgeStyle=orthogonalEdgeStyle;rounded=0;orthogonalLoop=1;jettySize=auto;html=1;exitX=0;exitY=0.75;exitDx=0;exitDy=0;entryX=1;entryY=0.75;entryDx=0;entryDy=0;" edge="1" parent="1" source="NvFCu2Bgrx8EYoaxN4R6-2" target="NvFCu2Bgrx8EYoaxN4R6-1">
          <mxGeometry relative="1" as="geometry" />
        </mxCell>
        <mxCell id="NvFCu2Bgrx8EYoaxN4R6-2" value="Node" style="rounded=1;whiteSpace=wrap;html=1;fillColor=#fff2cc;strokeColor=#d6b656;" vertex="1" parent="1">
          <mxGeometry x="300" y="190" width="100" height="50" as="geometry" />
        </mxCell>
        <mxCell id="NvFCu2Bgrx8EYoaxN4R6-7" style="edgeStyle=orthogonalEdgeStyle;rounded=0;orthogonalLoop=1;jettySize=auto;html=1;exitX=0;exitY=0.75;exitDx=0;exitDy=0;entryX=1;entryY=0.75;entryDx=0;entryDy=0;" edge="1" parent="1" source="NvFCu2Bgrx8EYoaxN4R6-3" target="NvFCu2Bgrx8EYoaxN4R6-2">
          <mxGeometry relative="1" as="geometry" />
        </mxCell>
        <mxCell id="NvFCu2Bgrx8EYoaxN4R6-3" value="Node" style="rounded=1;whiteSpace=wrap;html=1;fillColor=#fff2cc;strokeColor=#d6b656;" vertex="1" parent="1">
          <mxGeometry x="450" y="190" width="100" height="50" as="geometry" />
        </mxCell>
        <mxCell id="NvFCu2Bgrx8EYoaxN4R6-13" style="edgeStyle=none;rounded=0;orthogonalLoop=1;jettySize=auto;html=1;exitX=0.5;exitY=1;exitDx=0;exitDy=0;entryX=0.5;entryY=0;entryDx=0;entryDy=0;" edge="1" parent="1" source="NvFCu2Bgrx8EYoaxN4R6-8" target="NvFCu2Bgrx8EYoaxN4R6-1">
          <mxGeometry relative="1" as="geometry" />
        </mxCell>
        <mxCell id="NvFCu2Bgrx8EYoaxN4R6-8" value="head" style="text;html=1;strokeColor=none;fillColor=none;align=center;verticalAlign=middle;whiteSpace=wrap;rounded=0;" vertex="1" parent="1">
          <mxGeometry x="180" y="120" width="40" height="20" as="geometry" />
        </mxCell>
        <mxCell id="NvFCu2Bgrx8EYoaxN4R6-16" style="edgeStyle=none;rounded=0;orthogonalLoop=1;jettySize=auto;html=1;exitX=0.5;exitY=1;exitDx=0;exitDy=0;entryX=0.5;entryY=0;entryDx=0;entryDy=0;" edge="1" parent="1" source="NvFCu2Bgrx8EYoaxN4R6-9" target="NvFCu2Bgrx8EYoaxN4R6-3">
          <mxGeometry relative="1" as="geometry" />
        </mxCell>
        <mxCell id="NvFCu2Bgrx8EYoaxN4R6-9" value="tail" style="text;html=1;strokeColor=none;fillColor=none;align=center;verticalAlign=middle;whiteSpace=wrap;rounded=0;" vertex="1" parent="1">
          <mxGeometry x="480" y="120" width="40" height="20" as="geometry" />
        </mxCell>
      </root>
    </mxGraphModel>
  </diagram>
</mxfile>
